<svg xmlns="http://www.w3.org/2000/svg" viewBox="0 0 24 24">
  <defs>
    <linearGradient id="instaGradient" x1="0%" y1="100%" x2="100%" y2="0%">
      <stop offset="0%" stop-color="#F58529"/>
      <stop offset="25%" stop-color="#DD2A7B"/>
      <stop offset="50%" stop-color="#8134AF"/>
      <stop offset="75%" stop-color="#515BD4"/>
      <stop offset="100%" stop-color="#515BD4"/>
    </linearGradient>
  </defs>

  <path
    fill="url(#instaGradient)"
    d="M7 2C4.24 2 2 4.24 2 7v10c0 2.76 2.24 5 5 5h10c2.76 0 5-2.24 5-5V7c0-2.76-2.24-5-5-5H7zm10 2c1.65 0 3 1.35 3 3v10c0 1.65-1.35 3-3 3H7c-1.65 0-3-1.35-3-3V7c0-1.65 1.35-3 3-3h10zm-5 3.5A4.5 4.5 0 1 0 16.5 12 4.51 4.51 0 0 0 12 7.5zm0 7.3A2.8 2.8 0 1 1 14.8 12 2.81 2.81 0 0 1 12 14.8zM17.5 6.2a1.05 1.05 0 1 0 0 2.1 1.05 1.05 0 0 0 0-2.1z"
  />
</svg>
