<svg xmlns="http://www.w3.org/2000/svg" viewBox="0 0 24 24">
  <path
    fill="#25D366"
    d="M20.52 3.48A11.91 11.91 0 0 0 12.02 0C5.4 0 .04 5.37.04 12c0 2.12.55 4.19 1.6 6.02L0 24l6.16-1.62a11.93 11.93 0 0 0 5.86 1.49h.01c6.62 0 11.99-5.37 11.99-12 0-3.2-1.25-6.21-3.5-8.39zM12.02 21.3a9.26 9.26 0 0 1-4.73-1.29l-.34-.2-3.65.96.97-3.56-.22-.37a9.3 9.3 0 1 1 7.97 4.46zm5.1-6.97c-.28-.14-1.65-.81-1.9-.9-.26-.09-.45-.14-.64.14-.19.28-.73.9-.9 1.08-.17.19-.33.21-.61.07-.28-.14-1.19-.44-2.27-1.4-.84-.75-1.4-1.67-1.57-1.95-.16-.28-.02-.43.12-.57.13-.13.28-.33.42-.5.14-.17.19-.28.28-.47.09-.19.05-.36-.02-.5-.07-.14-.64-1.55-.88-2.12-.23-.56-.46-.48-.64-.49h-.55c-.19 0-.5.07-.76.36-.26.28-1 1-.99 2.44 0 1.44 1.03 2.83 1.17 3.03.14.19 2.03 3.1 4.92 4.34.69.3 1.23.48 1.65.61.69.22 1.32.19 1.82.12.56-.08 1.65-.67 1.88-1.32.23-.65.23-1.21.16-1.32-.07-.11-.26-.18-.54-.32z"
  />
</svg>



